<mxfile host="app.diagrams.net" modified="2020-06-17T10:12:35.491Z" agent="5.0 (Windows NT 10.0; Win64; x64) AppleWebKit/537.36 (KHTML, like Gecko) Chrome/83.0.4103.97 Safari/537.36" etag="taR3EOJoJmA7D4JUuZS0" version="13.2.4" type="github">
  <diagram id="8TGCa_ktwGSLHj1pzFkR" name="Page-1">
    <mxGraphModel dx="782" dy="437" grid="1" gridSize="10" guides="1" tooltips="1" connect="1" arrows="1" fold="1" page="1" pageScale="1" pageWidth="850" pageHeight="1100" math="0" shadow="0">
      <root>
        <mxCell id="0" />
        <mxCell id="1" parent="0" />
        <mxCell id="qzlA5_UaND0cFiVb6v2D-30" value="XMPP Server" style="rounded=0;whiteSpace=wrap;html=1;" vertex="1" parent="1">
          <mxGeometry x="600" y="200" width="190" height="270" as="geometry" />
        </mxCell>
        <mxCell id="qzlA5_UaND0cFiVb6v2D-23" value="Asset Server" style="rounded=0;whiteSpace=wrap;html=1;verticalAlign=top;" vertex="1" parent="1">
          <mxGeometry x="610" y="210" width="170" height="80" as="geometry" />
        </mxCell>
        <mxCell id="qzlA5_UaND0cFiVb6v2D-3" value="" style="rounded=0;whiteSpace=wrap;html=1;" vertex="1" parent="1">
          <mxGeometry x="200" y="80" width="360" height="80" as="geometry" />
        </mxCell>
        <mxCell id="qzlA5_UaND0cFiVb6v2D-2" value="User" style="shape=umlActor;verticalLabelPosition=bottom;labelBackgroundColor=#ffffff;verticalAlign=top;html=1;outlineConnect=0;" vertex="1" parent="1">
          <mxGeometry x="370" y="90" width="20" height="40" as="geometry" />
        </mxCell>
        <mxCell id="qzlA5_UaND0cFiVb6v2D-10" value="Identitiy Management" style="rounded=0;whiteSpace=wrap;html=1;" vertex="1" parent="1">
          <mxGeometry x="200" y="200" width="160" height="80" as="geometry" />
        </mxCell>
        <mxCell id="qzlA5_UaND0cFiVb6v2D-12" value="HTTP Server" style="rounded=0;whiteSpace=wrap;html=1;verticalAlign=top;" vertex="1" parent="1">
          <mxGeometry x="400" y="200" width="160" height="80" as="geometry" />
        </mxCell>
        <mxCell id="qzlA5_UaND0cFiVb6v2D-14" value="UI" style="rounded=0;whiteSpace=wrap;html=1;" vertex="1" parent="1">
          <mxGeometry x="410" y="230" width="60" height="40" as="geometry" />
        </mxCell>
        <mxCell id="qzlA5_UaND0cFiVb6v2D-15" value="Proxy" style="rounded=0;whiteSpace=wrap;html=1;" vertex="1" parent="1">
          <mxGeometry x="490" y="230" width="60" height="40" as="geometry" />
        </mxCell>
        <mxCell id="qzlA5_UaND0cFiVb6v2D-18" value="Stream Server" style="rounded=0;whiteSpace=wrap;html=1;" vertex="1" parent="1">
          <mxGeometry x="200" y="330" width="360" height="40" as="geometry" />
        </mxCell>
        <mxCell id="qzlA5_UaND0cFiVb6v2D-19" value="NoSQL DB" style="rounded=0;whiteSpace=wrap;html=1;" vertex="1" parent="1">
          <mxGeometry x="200" y="429.38" width="360" height="40" as="geometry" />
        </mxCell>
        <mxCell id="qzlA5_UaND0cFiVb6v2D-20" value="Metadata" style="rounded=1;whiteSpace=wrap;html=1;arcSize=50;" vertex="1" parent="1">
          <mxGeometry x="700" y="240" width="70" height="40" as="geometry" />
        </mxCell>
        <mxCell id="qzlA5_UaND0cFiVb6v2D-21" value="Visual" style="rounded=1;whiteSpace=wrap;html=1;arcSize=50;" vertex="1" parent="1">
          <mxGeometry x="620" y="240" width="70" height="40" as="geometry" />
        </mxCell>
        <mxCell id="qzlA5_UaND0cFiVb6v2D-26" value="Workflow Engine" style="rounded=0;whiteSpace=wrap;html=1;verticalAlign=top;" vertex="1" parent="1">
          <mxGeometry x="610" y="300" width="170" height="80" as="geometry" />
        </mxCell>
        <mxCell id="qzlA5_UaND0cFiVb6v2D-27" value="CMMN" style="rounded=1;whiteSpace=wrap;html=1;arcSize=50;" vertex="1" parent="1">
          <mxGeometry x="700" y="330" width="70" height="40" as="geometry" />
        </mxCell>
        <mxCell id="qzlA5_UaND0cFiVb6v2D-28" value="BPMN" style="rounded=1;whiteSpace=wrap;html=1;arcSize=50;" vertex="1" parent="1">
          <mxGeometry x="620" y="330" width="70" height="40" as="geometry" />
        </mxCell>
        <mxCell id="qzlA5_UaND0cFiVb6v2D-32" value="ERP" style="rounded=0;whiteSpace=wrap;html=1;" vertex="1" parent="1">
          <mxGeometry x="40" y="200" width="120" height="270" as="geometry" />
        </mxCell>
        <mxCell id="qzlA5_UaND0cFiVb6v2D-33" value="..." style="rounded=0;whiteSpace=wrap;html=1;fontStyle=1;fontSize=20;verticalAlign=middle;rotation=90;strokeColor=none;fillColor=none;" vertex="1" parent="1">
          <mxGeometry x="688" y="430" width="40" height="39.38" as="geometry" />
        </mxCell>
        <mxCell id="qzlA5_UaND0cFiVb6v2D-29" value="XMPP Server" style="rounded=0;whiteSpace=wrap;html=1;" vertex="1" parent="1">
          <mxGeometry x="610" y="390" width="170" height="40" as="geometry" />
        </mxCell>
      </root>
    </mxGraphModel>
  </diagram>
</mxfile>
